<?xml version="1.0" encoding="UTF-8"?>
<svg xmlns="http://www.w3.org/2000/svg" version="1.1" viewBox="0 0 64 25">
  <path d="M5.8321 24.4119C-.865 21.9224-1.4409 16.3662 4.186 8.527c3.2464-4.5228 3.4073-4.6798 5.0077-4.8884 2.5361-.3304 2.5574-.1496.3135 2.6598-7.237 9.061-8.1476 13.4121-3.1025 14.8247 4.9918 1.3976 13.5628-7.6795 15.8478-16.7834.1574-.6275.293-.6913 1.4677-.6913 1.555 0 1.5393-.1994.218 2.7539-.5919 1.323-1.2982 2.9413-1.5696 3.5961C17.8566 20.8847 11.4248 26.4908 5.832 24.412zm13.097-2.926c0-.2108.2073-.6591 3.7236-8.0479 1.3505-2.8377 2.8816-6.231 3.4026-7.5406l.9473-2.3813 3.173-.1625c4.8441-.2482 9.6555-.259 9.6555-.0217 0 1.3704-1.7164 1.904-6.124 1.904h-4.379l-.4208 1.071c-.3915.9968-.3897 1.0623.026.945 1.1784-.3327 7.9285-.4732 8.1165-.169.6474 1.0475-1.4624 2.121-4.216 2.145-5.2628.0458-5.126-.019-6.3834 3.0195-2.645 6.3912-3.4726 7.7992-4.9717 8.4586-1.7609.7746-2.5497 1.0158-2.5497.7798zm5.027-.3361c0-.221.9097-2.054 1.1616-2.3406.0255-.029 2.3047-.655 5.0648-1.3911 13.311-3.5499 15.1544-4.0473 16.2632-4.3891 1.6225-.5002 10.3743-2.0049 10.5631-1.816.351.351-.9863.8887-3.8935 1.5656-5.6864 1.324-18.5345 5.0927-24.9259 7.3115-3.7602 1.3053-4.2333 1.4238-4.2333 1.0597zm15.5729-9.593c-3.1484-.4063-3.4531-.6406-2.617-2.012.715-1.1726 2.2521-2.0769 5.1674-3.0399 1.9628-.6484 2.5065-.9377 2.6212-1.3949.6464-2.5752 5.1384-3.2844 7.429-1.173 1.0824.9977 1.1121 1.0068 3.7545 1.1413 6.538.3328 9.6608 2.2195 6.5027 3.9287-4.0706 2.2029-15.589 3.4878-22.8578 2.5498zm9.0607-1.296c5.7427-.2838 8.0728-.6345 11.6092-1.7476 2.5287-.796 2.459-.979-.5518-1.4499-2.5042-.3916-10.8917-.1531-14.1081.4011-4.4692.7701-8.3282 2.3344-6.5017 2.6355 2.907.4792 3.0603.4818 9.5524.161zm2.062-5.0337c.9533-.0088.9533-.0088.3287-.5292-1.1108-.9254-3.9643-.6408-4.3777.4367-.1516.3949.0062.4242 1.4629.272.898-.0939 2.0617-.1747 2.586-.1795zM7.8165 3.1665c0-.1491.3286-.6077.7303-1.019.4017-.4115.9182-1.0397 1.1479-1.3961.4565-.7085.4914-.708 20.0822.2715 2.9832.1492 7.6022.3658 10.2645.4813 2.9934.13 4.9555.325 5.1417.5113.6366.6365 2.1372.5763-24.0051.964-5.3843.0798-10.5933.2155-11.5756.3016-1.1445.1003-1.7859.059-1.7859-.1146z" style="fill:#FFFFFF;"/>
</svg>
